# xmcd CD database file
#
# Track frame offsets:
#        150
#        19405
#        37575
#        57397
#        83650
#        111215
#        135377
#        153387
#        170872
#        189995
#
# Disc length: 2850 seconds
#
# Revision: 0
# Processed by: cddbd v1.5.2PL0 Copyright (c) Steve Scherf et al.
# Submitted via: CUERipper 2.1.1
#
DISCID=790b200a
DTITLE=Sade - Stronger Than Pride
DYEAR=1988
DGENRE=
TTITLE0=Love Is Stronger Than Pride
TTITLE1=Paradise
TTITLE2=Nothing Can Come Between Us
TTITLE3=Haunt Me
TTITLE4=Turn My Back on You
TTITLE5=Keep Looking
TTITLE6=Clean Heart
TTITLE7=Give It Up
TTITLE8=I Never Thought I'd See the Day
TTITLE9=Siempre Hay Esperanza
EXTD=
EXTT0=
EXTT1=
EXTT2=
EXTT3=
EXTT4=
EXTT5=
EXTT6=
EXTT7=
EXTT8=
EXTT9=
PLAYORDER=
